# xmcd
#
# Track frame offsets: 
#        150
#        20160
#        36422
#        57127
#        78992
#        101639
#        121363
#        141038
#        162078
#        181439
#
# Disc length: 2674 seconds
#
# Revision: 0
# Processed by: cddbd v1.5.1PL2 Copyright (c) Steve Scherf et al.
# Submitted via: ExactAudioCopy v0.95a5
#
DISCID=830a700a
DTITLE=Tomte - Buchstaben Über Der Stadt
DYEAR=2006
DGENRE=Acid Punk
TTITLE0=Ich Sang Die Ganze Zeit Von Dir
TTITLE1=So Soll Es Sein
TTITLE2=Was Den Himmel Erhellt
TTITLE3=New York
TTITLE4=Walter and Gail
TTITLE5=Warum Ich Hier Stehe
TTITLE6=Norden Der Welt
TTITLE7=Wir Fragten Deinen Dealer
TTITLE8=Sie Lachen Zurecht Und Wir Lachen
TTITLE9=Geigen Bei Wonderful World
EXTD=
EXTT0=
EXTT1=
EXTT2=
EXTT3=
EXTT4=
EXTT5=
EXTT6=
EXTT7=
EXTT8=
EXTT9=
PLAYORDER=
